# xmcd
#
# Track frame offsets:
#	150
#	7698
#	31162
#	52104
#	56528
#	80303
#	108493
#	129965
#	153008
#	172002
#	194756
#	211256
#	227465
#	245075
#
# Disc length: 3369 seconds
#
# Revision: 0
# Processed by: cddbd v1.5.1PL0 Copyright (c) Steve Scherf et al.
# Submitted via: EasyCDDAExtractor 8.2.2.1
#
DISCID=ac0d270e
DTITLE=Los Hermanos - On Another Level
DYEAR=2005
DGENRE=country
TTITLE0=Welcome to Los Hermanos
TTITLE1=The Very Existence
TTITLE2=In Deeper Presence
TTITLE3=The kombination
TTITLE4=Birth of 3000
TTITLE5=Quetzal
TTITLE6=Lines of Nazra
TTITLE7=Olme my brother
TTITLE8=Return of the Dragon (Los Hermanos remix)
TTITLE9=Resurrection
TTITLE10=Sacrifice
TTITLE11=Guidance
TTITLE12=My mother Guitarra
TTITLE13=Galaxy traveler
EXTD=
EXTT0=
EXTT1=
EXTT2=
EXTT3=
EXTT4=
EXTT5=
EXTT6=
EXTT7=
EXTT8=
EXTT9=
EXTT10=
EXTT11=
EXTT12=
EXTT13=
PLAYORDER=
